<svg xmlns="http://www.w3.org/2000/svg" xmlns:xlink="http://www.w3.org/1999/xlink" xmlns:sketch="http://www.bohemiancoding.com/sketch/ns" viewBox="0 0 60 55" version="1.1" x="0px" y="0px"><title>meal</title><desc>Created with Sketch.</desc><g stroke="none" stroke-width="1" fill="none" fill-rule="evenodd" sketch:type="MSPage"><g sketch:type="MSArtboardGroup" transform="translate(0.000000, -16.000000)" fill="#000000"><path d="M0.0811,36.606 C0.2971,36.099 0.8861,35.863 1.3941,36.081 L15.3941,42.081 C15.9011,42.298 16.1371,42.886 15.9191,43.394 C15.7571,43.773 15.3881,44.001 14.9991,44.001 C14.8681,44.001 14.7341,43.974 14.6061,43.919 L0.6061,37.919 C0.0991,37.702 -0.1369,37.114 0.0811,36.606 M13.0001,39 C13.0001,38.448 13.4481,38 14.0001,38 C15.0791,38 16.0881,38.431 16.8311,39.181 C17.6751,38.914 18.5971,38.949 19.4121,39.262 C20.0621,37.92 21.4351,37 23.0001,37 C23.9231,37 24.8001,37.316 25.5001,37.879 C26.7131,36.904 28.5401,36.737 29.9031,37.484 C30.6491,36.565 31.7821,36 33.0001,36 C34.8611,36 36.4301,37.278 36.8741,39.002 C37.5821,38.977 38.2831,39.151 38.9001,39.488 C39.6461,38.567 40.7811,38 42.0001,38 C43.4571,38 44.7751,38.802 45.4721,40.036 C46.7101,39.864 47.9671,40.307 48.8311,41.182 C50.2921,40.718 51.9521,41.187 52.9771,42.328 C53.3461,42.739 53.3111,43.371 52.9001,43.74 C52.7101,43.912 52.4711,43.996 52.2321,43.996 C51.9591,43.996 51.6851,43.884 51.4881,43.664 C50.8881,42.996 49.8811,42.786 49.0221,43.27 C48.5571,43.534 47.9691,43.385 47.6851,42.935 C47.1791,42.136 46.1681,41.781 45.2581,42.148 C44.9921,42.254 44.6941,42.243 44.4391,42.115 C44.1841,41.988 43.9941,41.757 43.9201,41.481 C43.6841,40.609 42.8941,40 42.0001,40 C41.1721,40 40.4221,40.527 40.1331,41.313 C40.0131,41.639 39.7311,41.879 39.3911,41.947 C39.0501,42.016 38.6981,41.902 38.4611,41.647 C37.9241,41.067 37.1851,40.818 36.3201,41.13 C36.0021,41.246 35.6441,41.191 35.3751,40.985 C35.1041,40.78 34.9571,40.451 34.9831,40.113 C34.9851,40.092 34.9961,39.996 34.9991,39.975 C35.0001,38.897 34.1021,38 33.0001,38 C32.1721,38 31.4221,38.527 31.1331,39.313 C31.0131,39.639 30.7311,39.879 30.3911,39.947 C30.0491,40.017 29.6981,39.902 29.4611,39.647 C28.6061,38.727 27.0151,38.871 26.3331,39.898 C25.9631,40.458 25.0371,40.458 24.6661,39.898 C24.2941,39.336 23.6711,39 23.0001,39 C21.9601,39 21.0901,39.819 21.0181,40.864 C20.9921,41.248 20.7481,41.582 20.3921,41.725 C20.0351,41.866 19.6281,41.793 19.3441,41.533 C18.7181,40.957 17.8071,40.826 17.0231,41.27 C16.5571,41.532 15.9701,41.385 15.6851,40.936 C15.3131,40.35 14.6841,40 14.0001,40 C13.4481,40 13.0001,39.552 13.0001,39 M29.2931,21.293 C29.7831,20.803 30.0001,20.562 30.0001,20 C30.0001,18.658 28.5611,17.899 28.5471,17.892 C28.0591,17.639 27.8621,17.039 28.1121,16.548 C28.3611,16.059 28.9581,15.862 29.4471,16.106 C29.5511,16.158 32.0001,17.412 32.0001,20 C32.0001,21.414 31.2531,22.162 30.7071,22.707 C30.2171,23.197 30.0001,23.438 30.0001,24 C30.0001,24.562 30.2171,24.803 30.7071,25.293 C31.2531,25.838 32.0001,26.586 32.0001,28 C32.0001,30.588 29.5511,31.842 29.4471,31.895 C29.3041,31.966 29.1511,32 29.0011,32 C28.6341,32 28.2811,31.798 28.1051,31.447 C27.8581,30.953 28.0591,30.353 28.5531,30.106 C28.5611,30.101 30.0001,29.342 30.0001,28 C30.0001,27.438 29.7831,27.197 29.2931,26.707 C28.7471,26.162 28.0001,25.414 28.0001,24 C28.0001,22.586 28.7471,21.838 29.2931,21.293 M37.2931,28.707 C36.7471,28.162 36.0001,27.414 36.0001,26 C36.0001,23.412 38.4481,22.158 38.5531,22.106 C39.0461,21.859 39.6461,22.059 39.8941,22.553 C40.1421,23.047 39.9411,23.648 39.4471,23.895 C39.4381,23.899 38.0001,24.658 38.0001,26 C38.0001,26.562 38.2171,26.803 38.7071,27.293 C39.2531,27.838 40.0001,28.586 40.0001,30 C40.0001,32.588 37.5521,33.842 37.4471,33.895 C37.3041,33.966 37.1511,34 37.0011,34 C36.6341,34 36.2811,33.798 36.1051,33.447 C35.8591,32.955 36.0581,32.357 36.5481,32.108 C36.5821,32.09 38.0001,31.333 38.0001,30 C38.0001,29.438 37.7831,29.197 37.2931,28.707 M21.2931,28.707 C20.7471,28.162 20.0001,27.414 20.0001,26 C20.0001,23.412 22.4491,22.158 22.5531,22.106 C23.0481,21.857 23.6481,22.059 23.8941,22.553 C24.1421,23.047 23.9411,23.648 23.4471,23.895 C23.4381,23.899 22.0001,24.658 22.0001,26 C22.0001,26.562 22.2171,26.803 22.7071,27.293 C23.2531,27.838 24.0001,28.586 24.0001,30 C24.0001,32.588 21.5511,33.842 21.4471,33.895 C21.3041,33.966 21.1511,34 21.0011,34 C20.6341,34 20.2811,33.798 20.1051,33.447 C19.8591,32.955 20.0581,32.357 20.5471,32.108 C20.5811,32.09 22.0001,31.333 22.0001,30 C22.0001,29.438 21.7831,29.197 21.2931,28.707 M55.0001,50 L53.0001,50 C52.4471,50 52.0001,50.448 52.0001,51 C52.0001,54.86 48.8591,58 45.0001,58 L15.0001,58 C11.4791,58 8.5581,55.388 8.0711,52 L49.0001,52 C49.5531,52 50.0001,51.552 50.0001,51 C50.0001,50.448 49.5531,50 49.0001,50 L5.0001,50 C3.6961,50 2.5841,49.164 2.1711,48 L57.8291,48 C57.4161,49.164 56.3041,50 55.0001,50 M59.0001,46 L1.0001,46 C0.4481,46 0.0001,46.448 0.0001,47 C0.0001,49.757 2.2431,52 5.0001,52 L6.0551,52 C6.5541,56.494 10.3751,60 15.0001,60 L45.0001,60 C49.6251,60 53.4451,56.494 53.9441,52 L55.0001,52 C57.7571,52 60.0001,49.757 60.0001,47 C60.0001,46.448 59.5531,46 59.0001,46" sketch:type="MSShapeGroup"/></g></g><text x="0" y="59" fill="#000000" font-size="5px" font-weight="bold" font-family="'Helvetica Neue', Helvetica, Arial-Unicode, Arial, Sans-serif">Created by Pixel Bazaar</text><text x="0" y="64" fill="#000000" font-size="5px" font-weight="bold" font-family="'Helvetica Neue', Helvetica, Arial-Unicode, Arial, Sans-serif">from the Noun Project</text></svg>